<?xml version="1.0" encoding="UTF-8" ?>
<!DOCTYPE svg PUBLIC "-//W3C//DTD SVG 1.1//EN" "http://www.w3.org/Graphics/SVG/1.1/DTD/svg11.dtd">
<svg width="262pt" height="351pt" viewBox="0 0 262 351" version="1.1" xmlns="http://www.w3.org/2000/svg">
<g id="#ffffffff">
<path fill="#ffffff" opacity="1.00" d=" M 170.00 46.96 C 173.08 44.97 177.74 44.75 180.29 47.74 C 183.80 51.07 182.73 57.27 178.73 59.72 C 176.81 61.13 174.29 60.68 172.08 60.79 C 173.01 58.87 174.92 56.59 173.35 54.44 C 171.72 52.10 168.84 53.61 166.98 54.77 C 167.25 51.98 167.62 48.83 170.00 46.96 Z" />
<path fill="#ffffff" opacity="1.00" d=" M 146.04 48.02 C 147.65 47.50 149.41 47.06 151.07 47.69 C 153.74 49.05 154.08 52.33 155.16 54.78 C 153.30 53.65 149.41 51.88 148.40 54.98 C 146.91 57.18 149.39 58.99 150.26 60.84 C 148.68 60.06 146.96 59.50 145.60 58.36 C 143.54 55.92 143.43 52.37 144.66 49.53 C 145.01 49.15 145.69 48.40 146.04 48.02 Z" />
<path fill="#ffffff" opacity="1.00" d=" M 176.56 80.70 C 179.48 80.14 182.34 79.32 185.27 78.79 C 184.28 80.02 183.60 81.74 181.91 82.17 C 175.65 84.41 168.50 85.20 162.21 82.65 C 166.92 81.50 171.84 81.83 176.56 80.70 Z" />
</g>
<g id="#cdccccff">
<path fill="#cdcccc" opacity="1.00" d=" M 254.56 0.00 L 260.34 0.00 C 260.03 1.41 260.58 1.96 262.00 1.65 L 262.00 7.34 C 259.67 4.75 257.18 2.30 254.56 0.00 Z" />
</g>
<g id="#e58278ff">
<path fill="#e58278" opacity="1.00" d=" M 260.34 0.00 L 262.00 0.00 L 262.00 1.65 C 260.58 1.96 260.03 1.41 260.34 0.00 Z" />
</g>
<g id="#2a1c15ff">
<path fill="#2a1c15" opacity="1.00" d=" M 144.12 10.94 C 147.82 5.96 153.77 2.32 160.09 2.38 C 161.72 2.18 162.99 3.23 164.23 4.10 C 168.19 3.62 174.11 1.28 176.39 5.86 C 185.75 5.33 195.34 8.25 202.16 14.82 C 207.28 19.15 209.37 25.71 211.06 31.95 C 212.81 33.90 215.15 35.40 216.22 37.90 C 218.86 43.41 217.65 49.73 216.17 55.39 L 215.99 55.45 C 215.62 55.57 214.87 55.83 214.50 55.96 C 213.24 57.96 212.18 60.07 211.09 62.17 C 212.12 56.06 214.10 49.77 212.49 43.58 C 211.50 39.40 207.27 36.99 206.26 32.81 C 205.03 28.74 204.07 24.30 200.86 21.25 C 193.74 13.77 182.84 11.72 172.90 12.39 C 171.70 11.12 170.97 8.91 168.95 8.80 C 165.53 8.52 162.44 10.28 159.39 11.57 C 159.20 10.86 158.80 9.45 158.60 8.74 C 155.85 9.70 152.62 10.36 150.90 12.96 C 148.88 15.83 147.67 19.15 146.19 22.31 C 145.54 18.51 144.90 14.71 144.12 10.94 Z" />
</g>
<g id="#160d08ff">
<path fill="#160d08" opacity="1.00" d=" M 150.90 12.96 C 152.62 10.36 155.85 9.70 158.60 8.74 C 158.80 9.45 159.20 10.86 159.39 11.57 C 162.44 10.28 165.53 8.52 168.95 8.80 C 170.97 8.91 171.70 11.12 172.90 12.39 C 182.84 11.72 193.74 13.77 200.86 21.25 C 204.07 24.30 205.03 28.74 206.26 32.81 C 207.27 36.99 211.50 39.40 212.49 43.58 C 214.10 49.77 212.12 56.06 211.09 62.17 C 212.18 60.07 213.24 57.96 214.50 55.96 C 214.87 55.83 215.62 55.57 215.99 55.45 C 215.21 57.90 214.32 60.32 213.34 62.70 C 216.46 65.93 218.06 70.99 216.29 75.26 C 213.75 79.38 208.41 81.35 203.83 79.55 C 201.48 83.53 198.75 87.31 195.44 90.54 C 201.00 91.01 205.94 94.35 209.48 98.51 C 214.78 105.21 219.32 112.46 223.76 119.75 C 223.67 117.36 224.19 114.83 223.52 112.53 C 221.61 109.63 219.95 106.55 219.36 103.08 C 217.58 98.36 215.99 93.02 217.83 88.06 C 218.45 86.29 220.16 85.95 221.85 86.26 C 221.15 82.66 219.92 78.70 221.35 75.13 C 221.87 73.16 224.19 73.05 225.74 72.34 C 227.54 69.94 230.56 69.64 233.17 70.86 C 234.79 70.67 236.42 70.53 238.05 70.43 C 239.66 72.50 241.65 74.10 244.14 74.97 C 247.44 77.83 248.25 82.43 249.22 86.47 C 250.42 94.34 251.38 103.16 246.68 110.15 C 248.71 122.35 250.19 135.53 245.15 147.22 C 243.13 152.27 237.94 155.59 232.54 155.59 C 233.43 155.15 234.32 154.70 235.20 154.24 C 240.33 152.40 244.05 148.05 245.29 142.77 C 247.87 135.01 247.41 126.71 246.75 118.69 C 240.20 122.68 231.73 122.99 224.99 119.23 C 224.52 125.50 225.99 131.66 226.17 137.90 C 223.81 133.76 224.31 128.82 223.34 124.31 C 221.87 127.36 220.87 130.59 219.69 133.75 C 218.82 129.45 221.05 125.55 223.32 122.10 C 219.24 114.03 214.21 106.46 208.59 99.39 C 206.13 96.25 202.72 94.09 199.15 92.40 C 197.43 97.67 196.53 103.15 195.71 108.62 C 195.52 107.89 195.13 106.44 194.94 105.72 C 195.28 100.94 196.60 96.32 197.63 91.66 C 196.96 91.77 195.62 91.99 194.95 92.10 C 192.36 93.24 189.24 94.79 188.88 97.96 C 187.84 102.50 186.98 108.21 182.19 110.33 C 177.94 111.33 173.97 108.64 170.23 106.99 C 166.82 108.84 162.62 111.65 158.76 109.28 C 154.59 106.77 154.47 101.41 153.94 97.13 C 152.65 95.98 151.36 94.82 150.02 93.73 C 147.72 93.54 144.86 93.26 143.12 95.03 C 139.37 100.88 138.52 107.95 137.12 114.61 C 136.92 112.72 136.79 110.82 136.70 108.93 C 137.12 106.47 137.79 104.06 138.57 101.69 C 139.44 99.34 140.42 97.02 141.34 94.69 C 132.17 98.94 125.47 107.51 122.87 117.20 C 123.81 117.31 125.70 117.51 126.65 117.61 C 129.71 117.95 132.76 118.35 135.82 118.72 C 135.84 117.92 135.89 116.32 135.91 115.52 C 136.96 119.64 141.44 119.30 144.80 119.84 C 144.72 121.39 144.73 122.95 144.45 124.49 C 141.94 127.70 137.92 129.28 135.33 132.42 C 134.35 135.58 134.30 138.95 133.43 142.15 L 132.99 143.67 C 133.00 141.36 132.96 139.06 133.06 136.76 C 133.12 135.97 133.23 134.40 133.29 133.62 C 128.20 137.41 123.12 141.21 118.24 145.28 C 114.12 149.69 107.72 146.65 102.57 146.69 C 104.81 146.52 107.04 146.23 109.28 146.06 C 110.15 146.12 111.90 146.26 112.77 146.32 C 112.78 145.46 112.81 143.74 112.83 142.87 C 109.18 142.69 105.53 142.40 101.89 142.14 C 103.13 141.82 104.37 141.50 105.61 141.18 C 107.99 141.29 110.36 141.46 112.74 141.62 C 113.00 139.14 113.25 136.66 113.37 134.17 C 113.74 133.84 114.47 133.19 114.84 132.86 C 114.52 136.06 114.24 139.28 114.44 142.50 C 117.63 139.48 116.67 134.92 117.05 131.00 C 117.37 115.33 118.36 99.68 118.37 84.00 C 118.68 83.69 119.32 83.06 119.64 82.75 C 119.90 94.06 118.85 105.36 118.97 116.66 C 119.58 116.77 120.80 116.99 121.41 117.10 C 124.73 104.70 134.71 93.36 148.02 92.00 C 139.57 82.10 138.96 68.39 139.94 56.03 C 140.30 52.02 141.67 48.11 141.37 44.05 C 141.18 37.00 141.13 29.45 145.19 23.34 C 143.16 19.53 142.75 15.05 144.12 10.94 C 144.90 14.71 145.54 18.51 146.19 22.31 C 147.67 19.15 148.88 15.83 150.90 12.96 M 152.09 23.18 C 149.30 27.53 147.38 32.35 145.59 37.18 C 149.26 36.01 153.16 35.78 156.87 36.90 C 156.76 38.74 156.65 40.58 156.54 42.42 C 152.56 41.10 147.85 40.78 144.21 43.18 C 143.23 44.74 143.13 46.66 142.64 48.39 C 142.44 48.41 142.04 48.45 141.83 48.47 C 142.13 54.34 140.63 60.15 141.12 66.04 C 140.87 76.90 144.63 88.67 153.74 95.23 C 160.74 100.37 169.87 100.12 178.09 99.31 C 180.82 99.28 183.34 97.99 185.66 96.67 C 193.21 92.07 198.90 85.06 203.61 77.69 C 206.40 78.99 209.89 79.62 212.44 77.44 C 215.44 75.87 216.32 72.12 215.26 69.08 C 214.60 66.05 211.97 62.13 208.38 63.40 C 206.03 64.91 205.26 67.84 204.02 70.19 C 201.55 70.19 199.08 70.19 196.61 70.22 C 198.78 63.37 200.15 56.22 199.87 49.00 C 199.58 43.44 199.86 37.56 197.43 32.39 C 195.03 27.47 189.29 25.00 184.01 25.19 C 173.34 25.19 162.58 25.48 152.09 23.18 M 226.64 72.72 C 229.54 78.47 230.89 84.86 230.89 91.29 C 232.35 91.23 233.81 91.17 235.27 91.11 C 235.31 84.34 232.46 78.09 231.72 71.44 C 229.96 71.62 228.26 72.06 226.64 72.72 M 233.39 71.71 C 234.15 78.25 236.64 84.47 236.79 91.11 C 238.36 91.30 239.94 91.49 241.52 91.67 C 241.99 86.34 240.31 81.24 239.33 76.08 C 238.95 74.76 239.09 73.03 237.80 72.19 C 236.34 71.95 234.86 71.80 233.39 71.71 M 222.40 76.32 C 221.68 82.25 223.38 88.32 225.71 93.74 C 226.98 92.86 228.24 91.98 229.51 91.10 C 229.24 85.49 228.56 79.69 225.89 74.66 C 224.76 73.27 222.29 74.62 222.40 76.32 M 240.67 74.73 C 240.99 77.54 241.63 80.31 242.31 83.05 C 243.31 86.87 241.81 91.49 245.16 94.42 C 239.42 92.43 233.16 91.75 227.34 93.81 C 229.50 96.49 232.07 99.22 232.11 102.91 C 229.62 99.69 228.13 95.47 224.00 93.92 C 222.68 91.91 222.30 87.75 219.22 88.05 C 217.42 92.95 218.77 98.26 220.89 102.81 C 221.46 107.59 223.94 112.61 228.63 114.47 C 236.14 116.66 245.46 112.81 247.55 104.85 L 247.73 104.71 C 249.61 98.26 248.82 91.44 247.46 84.97 C 246.45 80.96 245.26 75.95 240.67 74.73 M 155.57 97.93 C 155.91 101.66 156.28 106.35 160.01 108.34 C 163.22 109.93 166.47 107.70 169.13 106.06 C 165.16 105.16 160.98 103.63 159.30 99.57 C 158.06 99.01 156.81 98.47 155.57 97.93 M 182.67 99.76 C 180.38 103.75 175.95 105.25 171.68 106.01 C 174.88 107.50 178.34 109.88 182.01 108.97 C 186.09 106.75 186.96 101.51 187.34 97.30 C 185.77 98.11 184.22 98.93 182.67 99.76 M 161.43 100.86 C 166.34 105.56 174.59 105.36 179.76 101.16 C 173.64 101.36 167.53 101.35 161.43 100.86 M 224.98 114.07 C 225.05 115.37 225.13 116.68 225.21 117.98 C 231.84 121.36 240.16 121.61 246.43 117.27 C 246.12 115.44 245.84 113.61 245.55 111.78 C 240.02 116.58 231.32 118.24 224.98 114.07 M 118.88 118.20 L 118.45 119.27 C 125.29 121.01 132.48 120.86 139.38 122.35 C 137.19 124.22 134.81 125.89 132.23 127.19 C 132.48 126.50 132.99 125.12 133.24 124.43 C 130.90 125.81 127.96 125.01 125.60 126.43 C 127.37 126.56 129.15 126.61 130.93 126.59 C 131.42 127.00 131.91 127.42 132.40 127.84 C 127.47 130.19 123.07 133.54 118.60 136.65 C 117.75 138.70 117.15 141.11 118.00 143.28 C 121.35 141.65 124.05 139.03 127.03 136.85 C 132.04 132.90 137.25 129.19 142.17 125.12 C 143.60 124.21 143.39 122.40 143.73 120.96 C 135.44 120.09 127.18 118.84 118.88 118.20 M 119.47 121.37 C 119.28 122.79 121.72 122.96 122.43 122.06 C 122.61 120.65 120.17 120.51 119.47 121.37 M 125.44 122.28 C 125.35 123.70 127.86 123.61 128.60 122.82 C 128.69 121.39 126.18 121.50 125.44 122.28 M 131.41 123.10 C 131.76 124.53 134.44 124.37 135.52 123.71 C 135.20 122.22 132.45 122.30 131.41 123.10 M 118.98 126.05 C 121.78 126.75 124.64 126.45 126.62 124.21 C 123.84 123.71 121.06 123.95 118.98 126.05 M 118.36 127.46 C 117.19 128.91 119.75 130.09 120.54 128.66 C 121.69 127.21 119.13 126.04 118.36 127.46 M 120.92 129.62 C 123.28 131.87 126.42 130.21 128.52 128.49 C 126.93 128.21 125.35 127.93 123.76 127.66 C 122.80 128.29 121.85 128.95 120.92 129.62 M 118.48 131.03 C 118.40 132.40 118.31 133.78 118.23 135.15 C 119.83 134.21 121.43 133.28 123.02 132.32 C 121.51 131.89 120.00 131.42 118.48 131.03 M 115.31 142.86 C 114.20 143.35 113.31 145.67 114.92 146.08 C 117.01 146.40 117.85 141.97 115.31 142.86 Z" />
</g>
<g id="#a3613dff">
<path fill="#a3613d" opacity="1.00" d=" M 152.09 23.18 C 162.58 25.48 173.34 25.19 184.01 25.19 C 189.29 25.00 195.03 27.47 197.43 32.39 C 199.86 37.56 199.58 43.44 199.87 49.00 C 200.15 56.22 198.78 63.37 196.61 70.22 C 199.03 70.56 201.45 70.88 203.88 71.21 C 198.40 83.73 188.29 94.53 175.04 98.74 C 176.05 98.94 177.07 99.13 178.09 99.31 C 169.87 100.12 160.74 100.37 153.74 95.23 C 144.63 88.67 140.87 76.90 141.12 66.04 C 140.63 60.15 142.13 54.34 141.83 48.47 C 142.04 48.45 142.44 48.41 142.64 48.39 C 143.13 46.66 143.23 44.74 144.21 43.18 C 147.85 40.78 152.56 41.10 156.54 42.42 C 156.65 40.58 156.76 38.74 156.87 36.90 C 153.16 35.78 149.26 36.01 145.59 37.18 C 147.38 32.35 149.30 27.53 152.09 23.18 M 170.79 35.81 C 167.52 36.34 167.94 40.25 167.12 42.66 C 174.40 39.86 182.58 40.58 189.59 43.80 C 189.79 43.05 190.19 41.54 190.39 40.78 C 185.76 35.20 177.49 34.10 170.79 35.81 M 172.42 44.58 C 168.35 45.65 165.51 49.93 166.16 54.11 C 166.44 59.49 172.67 63.57 177.71 61.56 C 180.99 60.07 183.83 56.76 183.64 52.99 C 183.70 47.50 177.79 42.71 172.42 44.58 M 143.64 48.69 L 146.04 48.02 C 145.69 48.40 145.01 49.15 144.66 49.53 L 143.57 48.85 C 141.52 53.28 142.89 58.45 146.82 61.30 C 144.91 64.00 143.77 67.49 145.51 70.60 C 147.50 75.40 153.08 76.56 157.74 76.62 C 157.44 77.43 156.83 79.06 156.53 79.87 C 157.56 81.26 158.50 82.72 159.27 84.28 C 161.47 88.62 166.02 91.87 171.02 91.53 C 179.18 91.90 185.56 84.40 186.62 76.81 C 182.27 77.88 177.87 78.81 173.67 80.40 C 168.52 80.20 163.35 81.27 158.22 80.34 C 158.52 79.08 158.83 77.81 159.16 76.55 C 161.31 75.89 163.46 75.18 165.48 74.17 C 160.42 74.35 154.99 76.40 150.22 73.80 C 146.64 72.22 144.48 67.15 146.82 63.77 C 149.15 60.85 153.34 62.06 156.55 62.00 C 155.52 61.39 154.49 60.79 153.46 60.20 C 155.88 56.90 156.77 52.26 154.21 48.77 C 152.02 44.90 146.14 45.39 143.64 48.69 Z" />
<path fill="#a3613d" opacity="1.00" d=" M 226.64 72.72 C 228.26 72.06 229.96 71.62 231.72 71.44 C 232.46 78.09 235.31 84.34 235.27 91.11 C 233.81 91.17 232.35 91.23 230.89 91.29 C 230.89 84.86 229.54 78.47 226.64 72.72 Z" />
<path fill="#a3613d" opacity="1.00" d=" M 233.39 71.71 C 234.86 71.80 236.34 71.95 237.80 72.19 C 239.09 73.03 238.95 74.76 239.33 76.08 C 240.31 81.24 241.99 86.34 241.52 91.67 C 239.94 91.49 238.36 91.30 236.79 91.11 C 236.64 84.47 234.15 78.25 233.39 71.71 Z" />
<path fill="#a3613d" opacity="1.00" d=" M 222.40 76.32 C 222.29 74.62 224.76 73.27 225.89 74.66 C 228.56 79.69 229.24 85.49 229.51 91.10 C 228.24 91.98 226.98 92.86 225.71 93.74 C 223.38 88.32 221.68 82.25 222.40 76.32 Z" />
<path fill="#a3613d" opacity="1.00" d=" M 240.67 74.73 C 245.26 75.95 246.45 80.96 247.46 84.97 C 248.82 91.44 249.61 98.26 247.73 104.71 L 247.55 104.85 C 243.46 107.75 239.45 111.90 233.97 111.37 C 228.27 111.56 223.60 107.47 220.89 102.81 C 218.77 98.26 217.42 92.95 219.22 88.05 C 222.30 87.75 222.68 91.91 224.00 93.92 C 228.13 95.47 229.62 99.69 232.11 102.91 C 232.07 99.22 229.50 96.49 227.34 93.81 C 233.16 91.75 239.42 92.43 245.16 94.42 C 241.81 91.49 243.31 86.87 242.31 83.05 C 241.63 80.31 240.99 77.54 240.67 74.73 Z" />
<path fill="#a3613d" opacity="1.00" d=" M 70.22 123.87 C 71.42 124.04 72.62 124.27 73.81 124.54 C 75.18 130.29 73.79 136.38 75.23 142.14 L 76.55 143.35 C 76.20 137.10 75.74 130.84 76.17 124.58 C 77.02 125.09 77.84 125.65 78.64 126.25 C 79.55 131.79 79.60 137.44 80.20 143.03 C 80.64 143.23 81.52 143.65 81.96 143.85 C 81.74 138.21 80.48 132.58 80.95 126.93 C 80.93 125.27 83.10 126.57 83.38 127.34 C 85.99 133.03 87.40 139.18 88.73 145.27 C 89.57 145.49 91.24 145.93 92.08 146.15 C 87.71 150.28 80.92 152.00 75.31 149.49 C 71.25 147.63 67.12 145.81 63.54 143.10 C 64.28 142.89 65.76 142.47 66.50 142.26 C 66.03 137.25 65.20 132.13 66.34 127.16 C 66.78 126.57 67.67 125.39 68.12 124.80 C 68.40 129.83 68.13 134.90 68.86 139.90 C 68.88 141.37 69.65 142.59 70.70 143.56 C 70.34 137.00 69.70 130.44 70.22 123.87 Z" />
</g>
<g id="#130c07ff">
<path fill="#130c07" opacity="1.00" d=" M 170.79 35.81 C 177.49 34.10 185.76 35.20 190.39 40.78 C 190.19 41.54 189.79 43.05 189.59 43.80 C 182.58 40.58 174.40 39.86 167.12 42.66 C 167.94 40.25 167.52 36.34 170.79 35.81 Z" />
</g>
<g id="#010101ff">
<path fill="#010101" opacity="1.00" d=" M 172.42 44.58 C 177.79 42.71 183.70 47.50 183.64 52.99 C 183.83 56.76 180.99 60.07 177.71 61.56 C 172.67 63.57 166.44 59.49 166.16 54.11 C 165.51 49.93 168.35 45.65 172.42 44.58 M 170.00 46.96 C 167.62 48.83 167.25 51.98 166.98 54.77 C 168.84 53.61 171.72 52.10 173.35 54.44 C 174.92 56.59 173.01 58.87 172.08 60.79 C 174.29 60.68 176.81 61.13 178.73 59.72 C 182.73 57.27 183.80 51.07 180.29 47.74 C 177.74 44.75 173.08 44.97 170.00 46.96 Z" />
<path fill="#010101" opacity="1.00" d=" M 143.64 48.69 C 146.14 45.39 152.02 44.90 154.21 48.77 C 156.77 52.26 155.88 56.90 153.46 60.20 C 154.49 60.79 155.52 61.39 156.55 62.00 C 153.34 62.06 149.15 60.85 146.82 63.77 C 144.48 67.15 146.64 72.22 150.22 73.80 C 154.99 76.40 160.42 74.35 165.48 74.17 C 163.46 75.18 161.31 75.89 159.16 76.55 C 158.83 77.81 158.52 79.08 158.22 80.34 C 163.35 81.27 168.52 80.20 173.67 80.40 C 174.40 80.47 175.84 80.62 176.56 80.70 C 171.84 81.83 166.92 81.50 162.21 82.65 L 161.58 82.79 C 161.24 82.69 160.56 82.50 160.22 82.40 C 159.99 82.87 159.51 83.81 159.27 84.28 C 158.50 82.72 157.56 81.26 156.53 79.87 C 156.83 79.06 157.44 77.43 157.74 76.62 C 153.08 76.56 147.50 75.40 145.51 70.60 C 143.77 67.49 144.91 64.00 146.82 61.30 C 142.89 58.45 141.52 53.28 143.57 48.85 L 144.66 49.53 C 143.43 52.37 143.54 55.92 145.60 58.36 C 146.96 59.50 148.68 60.06 150.26 60.84 C 149.39 58.99 146.91 57.18 148.40 54.98 C 149.41 51.88 153.30 53.65 155.16 54.78 C 154.08 52.33 153.74 49.05 151.07 47.69 C 149.41 47.06 147.65 47.50 146.04 48.02 L 143.64 48.69 Z" />
<path fill="#010101" opacity="1.00" d=" M 70.42 101.52 C 74.90 99.67 80.86 102.92 80.37 108.06 C 80.58 113.70 72.84 117.03 68.79 113.18 C 64.70 110.33 65.74 103.15 70.42 101.52 M 70.21 102.99 C 65.87 105.45 67.22 112.59 72.06 113.47 C 76.16 114.59 80.35 110.06 78.79 106.07 C 77.75 102.55 73.25 101.23 70.21 102.99 Z" />
<path fill="#010101" opacity="1.00" d=" M 195.47 121.65 C 193.93 116.48 194.45 111.00 194.94 105.72 C 195.13 106.44 195.52 107.89 195.71 108.62 C 195.65 112.82 195.82 117.04 196.69 121.17 C 198.73 127.78 202.15 133.84 204.86 140.18 C 207.40 146.36 213.00 150.83 219.15 153.13 C 224.24 155.19 229.86 154.58 235.20 154.24 C 234.32 154.70 233.43 155.15 232.54 155.59 C 222.03 157.30 211.14 152.63 205.10 143.88 C 205.14 157.59 204.71 171.30 204.38 185.00 C 202.85 193.24 203.89 201.64 203.41 209.97 C 203.39 240.86 203.14 271.75 203.17 302.64 C 208.54 304.36 213.85 306.96 217.28 311.60 C 217.11 312.23 216.76 313.49 216.59 314.13 C 214.50 309.05 209.38 306.22 204.47 304.48 C 202.58 303.52 201.01 305.42 199.41 306.12 C 192.17 310.90 182.87 309.92 175.15 306.90 C 174.88 310.28 174.65 313.66 174.48 317.05 C 180.99 318.74 187.60 320.10 194.29 320.83 C 199.43 321.44 204.78 320.21 209.76 322.04 C 197.56 322.62 184.96 321.90 173.39 317.70 C 172.90 313.78 173.92 309.89 174.14 305.98 C 172.37 277.95 170.17 249.92 168.45 221.89 C 167.55 227.18 167.75 232.57 167.34 237.90 C 166.23 258.60 165.01 279.29 163.91 299.99 C 163.23 305.77 164.39 311.52 164.61 317.30 C 155.47 320.58 145.70 322.14 136.00 321.80 C 131.18 321.61 125.67 322.61 121.57 319.42 C 118.96 317.67 119.33 313.87 120.68 311.44 C 123.72 306.49 129.44 304.35 134.62 302.40 C 134.43 265.29 134.33 228.18 134.15 191.07 C 134.22 188.01 132.37 185.39 131.90 182.43 C 131.33 174.29 131.33 166.11 132.13 157.99 C 132.72 153.21 131.10 148.29 132.99 143.67 L 133.43 142.15 C 133.43 154.49 131.41 166.80 132.51 179.15 C 133.48 183.74 134.35 189.86 139.55 191.49 C 157.51 196.56 176.88 196.87 194.94 192.06 C 198.36 190.92 203.61 189.72 203.23 185.08 C 203.41 171.72 203.92 158.35 203.89 144.98 C 204.06 140.90 202.04 137.27 200.33 133.72 C 198.59 129.75 196.70 125.82 195.47 121.65 M 157.77 196.37 C 150.25 195.23 142.56 194.33 135.49 191.33 C 135.42 197.69 135.37 204.04 135.58 210.40 C 135.42 239.98 135.89 269.57 135.76 299.16 C 135.08 303.41 139.21 305.40 142.55 306.59 C 148.82 308.68 156.17 308.40 161.82 304.78 C 163.27 301.05 163.16 296.95 163.31 293.02 C 163.28 277.98 165.20 263.02 165.48 247.99 C 166.07 236.18 167.16 224.39 167.32 212.56 C 163.41 212.64 159.47 213.06 155.59 212.38 C 160.68 210.91 166.04 211.15 171.27 211.50 C 173.74 211.63 176.14 212.33 178.29 213.56 C 175.19 213.42 172.10 213.00 169.02 212.63 C 170.85 242.12 173.12 271.57 175.11 301.05 C 175.24 302.33 175.33 303.67 175.93 304.85 C 182.46 309.37 191.60 309.19 198.39 305.32 C 200.18 304.10 202.38 302.54 202.37 300.12 C 202.54 294.96 202.75 289.73 201.81 284.62 C 202.14 259.28 202.09 233.92 202.17 208.57 C 202.40 202.70 202.35 196.82 202.20 190.95 C 188.16 196.62 172.71 197.30 157.77 196.37 M 133.20 304.28 C 127.62 306.48 121.07 309.86 120.35 316.56 C 122.29 318.19 124.30 320.06 126.97 320.26 C 137.96 321.40 149.10 320.43 159.79 317.64 C 160.94 317.20 162.46 317.16 163.20 316.05 C 163.65 312.90 162.90 309.77 162.35 306.69 C 154.20 309.99 144.02 310.52 136.73 304.93 C 135.68 303.85 134.51 303.64 133.20 304.28 Z" />
</g>
<g id="#2d2b2cff">
<path fill="#2d2b2c" opacity="1.00" d=" M 255.42 60.61 C 258.12 61.50 260.44 63.20 262.00 65.60 L 262.00 68.93 C 260.68 65.53 257.81 63.21 255.42 60.61 Z" />
<path fill="#2d2b2c" opacity="1.00" d=" M 38.67 76.69 C 41.36 75.92 44.23 76.39 46.99 76.27 C 69.63 76.99 92.28 77.60 114.91 78.61 C 117.39 78.50 118.59 80.93 119.64 82.75 C 119.32 83.06 118.68 83.69 118.37 84.00 C 117.66 81.84 116.02 80.31 114.04 79.30 C 115.70 82.64 117.08 86.20 116.80 90.00 C 116.54 104.30 115.65 118.58 114.84 132.86 C 114.47 133.19 113.74 133.84 113.37 134.17 C 114.12 121.12 114.60 108.05 115.24 95.00 C 115.21 90.79 115.86 86.21 113.86 82.34 C 111.84 79.20 107.70 79.99 104.53 79.69 C 88.70 79.16 72.88 78.30 57.04 78.14 C 51.35 77.98 45.63 77.38 39.95 78.02 C 37.45 78.61 38.08 81.88 38.19 83.79 C 40.14 99.78 41.85 115.79 43.85 131.77 C 43.98 132.80 44.12 133.83 44.27 134.86 C 48.15 135.83 52.15 136.07 56.14 136.19 C 52.76 138.02 48.89 137.23 45.23 137.32 C 51.62 140.06 58.78 140.24 65.61 140.66 C 63.55 137.63 59.57 138.52 56.47 138.19 C 56.44 137.64 56.42 137.09 56.40 136.54 C 59.00 136.81 61.59 137.05 64.19 137.27 C 64.14 133.49 63.82 129.56 65.06 125.92 C 66.19 123.69 69.02 123.15 71.23 122.54 C 75.22 122.95 79.00 124.59 82.98 125.17 C 84.25 125.20 84.80 126.47 85.29 127.43 C 86.94 131.37 87.99 135.54 89.20 139.63 C 94.67 140.08 100.14 140.59 105.61 141.18 C 104.37 141.50 103.13 141.82 101.89 142.14 C 97.57 142.01 93.29 141.31 88.97 141.30 C 89.38 141.89 90.19 143.05 90.60 143.64 C 96.70 145.17 103.09 145.02 109.28 146.06 C 107.04 146.23 104.81 146.52 102.57 146.69 C 99.92 146.49 97.27 146.27 94.62 146.12 C 93.16 147.33 91.70 148.55 90.15 149.65 C 88.12 150.75 85.98 151.63 83.86 152.54 C 95.12 156.00 107.22 156.97 118.82 154.78 C 122.65 154.03 125.99 151.95 129.21 149.86 L 131.01 149.16 C 130.65 149.61 129.94 150.49 129.58 150.94 C 127.31 153.49 124.04 154.83 120.86 155.84 C 105.23 159.62 88.77 156.61 74.12 150.61 C 70.56 148.48 66.29 147.59 63.16 144.77 C 58.83 139.63 51.36 141.93 45.77 139.35 C 43.91 136.97 42.38 134.18 42.19 131.11 C 40.44 115.45 38.65 99.80 36.74 84.16 C 36.61 81.64 35.89 78.09 38.67 76.69 M 70.22 123.87 C 69.70 130.44 70.34 137.00 70.70 143.56 C 69.65 142.59 68.88 141.37 68.86 139.90 C 68.13 134.90 68.40 129.83 68.12 124.80 C 67.67 125.39 66.78 126.57 66.34 127.16 C 65.20 132.13 66.03 137.25 66.50 142.26 C 65.76 142.47 64.28 142.89 63.54 143.10 C 67.12 145.81 71.25 147.63 75.31 149.49 C 80.92 152.00 87.71 150.28 92.08 146.15 C 91.24 145.93 89.57 145.49 88.73 145.27 C 87.40 139.18 85.99 133.03 83.38 127.34 C 83.10 126.57 80.93 125.27 80.95 126.93 C 80.48 132.58 81.74 138.21 81.96 143.85 C 81.52 143.65 80.64 143.23 80.20 143.03 C 79.60 137.44 79.55 131.79 78.64 126.25 C 77.84 125.65 77.02 125.09 76.17 124.58 C 75.74 130.84 76.20 137.10 76.55 143.35 L 75.23 142.14 C 73.79 136.38 75.18 130.29 73.81 124.54 C 72.62 124.27 71.42 124.04 70.22 123.87 Z" />
</g>
<g id="#8d4a2eff">
<path fill="#8d4a2e" opacity="1.00" d=" M 208.38 63.40 C 211.97 62.13 214.60 66.05 215.26 69.08 C 216.32 72.12 215.44 75.87 212.44 77.44 C 209.89 79.62 206.40 78.99 203.61 77.69 C 198.90 85.06 193.21 92.07 185.66 96.67 C 183.34 97.99 180.82 99.28 178.09 99.31 C 177.07 99.13 176.05 98.94 175.04 98.74 C 188.29 94.53 198.40 83.73 203.88 71.21 C 201.45 70.88 199.03 70.56 196.61 70.22 C 199.08 70.19 201.55 70.19 204.02 70.19 C 205.26 67.84 206.03 64.91 208.38 63.40 M 205.89 75.16 C 207.39 72.43 210.07 70.92 212.79 69.65 C 209.27 68.72 204.93 71.11 205.89 75.16 Z" />
<path fill="#8d4a2e" opacity="1.00" d=" M 161.43 100.86 C 167.53 101.35 173.64 101.36 179.76 101.16 C 174.59 105.36 166.34 105.56 161.43 100.86 Z" />
<path fill="#8d4a2e" opacity="1.00" d=" M 220.89 102.81 C 223.60 107.47 228.27 111.56 233.97 111.37 C 239.45 111.90 243.46 107.75 247.55 104.85 C 245.46 112.81 236.14 116.66 228.63 114.47 C 223.94 112.61 221.46 107.59 220.89 102.81 Z" />
</g>
<g id="#28150dff">
<path fill="#28150d" opacity="1.00" d=" M 205.89 75.16 C 204.93 71.11 209.27 68.72 212.79 69.65 C 210.07 70.92 207.39 72.43 205.89 75.16 Z" />
</g>
<g id="#2b0808ff">
<path fill="#2b0808" opacity="1.00" d=" M 173.67 80.40 C 177.87 78.81 182.27 77.88 186.62 76.81 C 185.56 84.40 179.18 91.90 171.02 91.53 C 166.02 91.87 161.47 88.62 159.27 84.28 C 159.51 83.81 159.99 82.87 160.22 82.40 C 160.56 82.50 161.24 82.69 161.58 82.79 L 162.21 82.65 C 168.50 85.20 175.65 84.41 181.91 82.17 C 183.60 81.74 184.28 80.02 185.27 78.79 C 182.34 79.32 179.48 80.14 176.56 80.70 C 175.84 80.62 174.40 80.47 173.67 80.40 M 170.58 89.97 C 173.23 90.22 175.87 89.73 177.96 87.98 C 175.27 87.61 172.68 88.27 170.58 89.97 Z" />
</g>
<g id="#f6eeefff">
<path fill="#f6eeef" opacity="1.00" d=" M 38.19 83.79 C 38.08 81.88 37.45 78.61 39.95 78.02 C 45.63 77.38 51.35 77.98 57.04 78.14 C 72.88 78.30 88.70 79.16 104.53 79.69 C 97.62 82.42 90.00 82.97 83.37 86.47 C 70.77 93.03 58.77 101.99 51.73 114.61 C 48.38 119.99 46.99 126.28 43.85 131.77 C 41.85 115.79 40.14 99.78 38.19 83.79 Z" />
</g>
<g id="#f2e7e9ff">
<path fill="#f2e7e9" opacity="1.00" d=" M 104.53 79.69 C 107.70 79.99 111.84 79.20 113.86 82.34 C 115.86 86.21 115.21 90.79 115.24 95.00 C 114.60 108.05 114.12 121.12 113.37 134.17 C 113.25 136.66 113.00 139.14 112.74 141.62 C 110.36 141.46 107.99 141.29 105.61 141.18 C 100.14 140.59 94.67 140.08 89.20 139.63 C 87.99 135.54 86.94 131.37 85.29 127.43 C 84.80 126.47 84.25 125.20 82.98 125.17 C 79.00 124.59 75.22 122.95 71.23 122.54 C 69.02 123.15 66.19 123.69 65.06 125.92 C 63.82 129.56 64.14 133.49 64.19 137.27 C 61.59 137.05 59.00 136.81 56.40 136.54 C 56.42 137.09 56.44 137.64 56.47 138.19 C 59.57 138.52 63.55 137.63 65.61 140.66 C 58.78 140.24 51.62 140.06 45.23 137.32 C 48.89 137.23 52.76 138.02 56.14 136.19 C 52.15 136.07 48.15 135.83 44.27 134.86 C 44.12 133.83 43.98 132.80 43.85 131.77 C 46.99 126.28 48.38 119.99 51.73 114.61 C 58.77 101.99 70.77 93.03 83.37 86.47 C 90.00 82.97 97.62 82.42 104.53 79.69 M 70.42 101.52 C 65.74 103.15 64.70 110.33 68.79 113.18 C 72.84 117.03 80.58 113.70 80.37 108.06 C 80.86 102.92 74.90 99.67 70.42 101.52 Z" />
<path fill="#f2e7e9" opacity="1.00" d=" M 114.04 79.30 C 116.02 80.31 117.66 81.84 118.37 84.00 C 118.36 99.68 117.37 115.33 117.05 131.00 C 116.67 134.92 117.63 139.48 114.44 142.50 C 114.24 139.28 114.52 136.06 114.84 132.86 C 115.65 118.58 116.54 104.30 116.80 90.00 C 117.08 86.20 115.70 82.64 114.04 79.30 Z" />
<path fill="#f2e7e9" opacity="1.00" d=" M 118.88 118.20 C 127.18 118.84 135.44 120.09 143.73 120.96 C 143.39 122.40 143.60 124.21 142.17 125.12 C 137.25 129.19 132.04 132.90 127.03 136.85 C 124.05 139.03 121.35 141.65 118.00 143.28 C 117.15 141.11 117.75 138.70 118.60 136.65 C 123.07 133.54 127.47 130.19 132.40 127.84 C 131.91 127.42 131.42 127.00 130.93 126.59 C 129.15 126.61 127.37 126.56 125.60 126.43 C 127.96 125.01 130.90 125.81 133.24 124.43 C 132.99 125.12 132.48 126.50 132.23 127.19 C 134.81 125.89 137.19 124.22 139.38 122.35 C 132.48 120.86 125.29 121.01 118.45 119.27 L 118.88 118.20 Z" />
<path fill="#f2e7e9" opacity="1.00" d=" M 88.97 141.30 C 93.29 141.31 97.57 142.01 101.89 142.14 C 105.53 142.40 109.18 142.69 112.83 142.87 C 112.81 143.74 112.78 145.46 112.77 146.32 C 111.90 146.26 110.15 146.12 109.28 146.06 C 103.09 145.02 96.70 145.17 90.60 143.64 C 90.19 143.05 89.38 141.89 88.97 141.30 Z" />
</g>
<g id="#a36167ff">
<path fill="#a36167" opacity="1.00" d=" M 170.58 89.97 C 172.68 88.27 175.27 87.61 177.96 87.98 C 175.87 89.73 173.23 90.22 170.58 89.97 Z" />
</g>
<g id="#2a364fff">
<path fill="#2a364f" opacity="1.00" d=" M 188.88 97.96 C 189.24 94.79 192.36 93.24 194.95 92.10 C 194.85 98.18 193.64 104.73 188.88 108.96 C 183.31 114.93 174.45 115.31 166.88 114.31 C 161.33 113.69 156.43 110.19 153.35 105.64 C 151.05 102.10 150.84 97.76 150.02 93.73 C 151.36 94.82 152.65 95.98 153.94 97.13 C 154.47 101.41 154.59 106.77 158.76 109.28 C 162.62 111.65 166.82 108.84 170.23 106.99 C 173.97 108.64 177.94 111.33 182.19 110.33 C 186.98 108.21 187.84 102.50 188.88 97.96 Z" />
<path fill="#2a364f" opacity="1.00" d=" M 200.33 133.72 C 202.04 137.27 204.06 140.90 203.89 144.98 C 203.92 158.35 203.41 171.72 203.23 185.08 C 203.61 189.72 198.36 190.92 194.94 192.06 C 176.88 196.87 157.51 196.56 139.55 191.49 C 134.35 189.86 133.48 183.74 132.51 179.15 C 134.19 179.92 135.87 180.69 137.56 181.47 C 152.40 189.29 172.60 189.11 185.29 177.25 C 196.60 165.87 199.65 149.15 200.33 133.72 Z" />
</g>
<g id="#3c4d70ff">
<path fill="#3c4d70" opacity="1.00" d=" M 194.95 92.10 C 195.62 91.99 196.96 91.77 197.63 91.66 C 196.60 96.32 195.28 100.94 194.94 105.72 C 194.45 111.00 193.93 116.48 195.47 121.65 C 196.70 125.82 198.59 129.75 200.33 133.72 C 199.65 149.15 196.60 165.87 185.29 177.25 C 172.60 189.11 152.40 189.29 137.56 181.47 C 147.36 176.27 157.20 171.14 167.01 165.95 C 169.16 164.96 170.91 162.69 169.72 160.28 C 168.00 158.07 165.10 157.33 162.69 156.13 C 152.78 151.80 143.45 146.23 133.43 142.15 C 134.30 138.95 134.35 135.58 135.33 132.42 C 137.92 129.28 141.94 127.70 144.45 124.49 C 144.73 122.95 144.72 121.39 144.80 119.84 C 141.44 119.30 136.96 119.64 135.91 115.52 C 135.97 113.30 136.31 111.11 136.70 108.93 C 136.79 110.82 136.92 112.72 137.12 114.61 C 138.52 107.95 139.37 100.88 143.12 95.03 C 144.86 93.26 147.72 93.54 150.02 93.73 C 150.84 97.76 151.05 102.10 153.35 105.64 C 156.43 110.19 161.33 113.69 166.88 114.31 C 174.45 115.31 183.31 114.93 188.88 108.96 C 193.64 104.73 194.85 98.18 194.95 92.10 Z" />
</g>
<g id="#d9dfedff">
<path fill="#d9dfed" opacity="1.00" d=" M 199.15 92.40 C 202.72 94.09 206.13 96.25 208.59 99.39 C 214.21 106.46 219.24 114.03 223.32 122.10 C 221.05 125.55 218.82 129.45 219.69 133.75 C 220.87 130.59 221.87 127.36 223.34 124.31 C 224.31 128.82 223.81 133.76 226.17 137.90 C 225.99 131.66 224.52 125.50 224.99 119.23 C 231.73 122.99 240.20 122.68 246.75 118.69 C 247.41 126.71 247.87 135.01 245.29 142.77 C 238.18 147.75 229.08 152.52 220.35 148.67 C 208.55 143.07 202.48 130.51 197.36 119.19 C 197.20 119.69 196.86 120.68 196.69 121.17 C 195.82 117.04 195.65 112.82 195.71 108.62 C 196.53 103.15 197.43 97.67 199.15 92.40 Z" />
<path fill="#d9dfed" opacity="1.00" d=" M 122.87 117.20 C 125.47 107.51 132.17 98.94 141.34 94.69 C 140.42 97.02 139.44 99.34 138.57 101.69 C 132.27 104.77 128.67 111.17 126.65 117.61 C 125.70 117.51 123.81 117.31 122.87 117.20 Z" />
<path fill="#d9dfed" opacity="1.00" d=" M 110.00 152.05 C 117.55 151.45 124.18 147.65 130.85 144.41 C 130.32 146.23 129.83 148.07 129.21 149.86 C 125.99 151.95 122.65 154.03 118.82 154.78 C 107.22 156.97 95.12 156.00 83.86 152.54 C 85.98 151.63 88.12 150.75 90.15 149.65 C 96.68 150.95 103.27 152.98 110.00 152.05 Z" />
</g>
<g id="#b0b6c6ff">
<path fill="#b0b6c6" opacity="1.00" d=" M 155.57 97.93 C 156.81 98.47 158.06 99.01 159.30 99.57 C 160.98 103.63 165.16 105.16 169.13 106.06 C 166.47 107.70 163.22 109.93 160.01 108.34 C 156.28 106.35 155.91 101.66 155.57 97.93 Z" />
<path fill="#b0b6c6" opacity="1.00" d=" M 182.67 99.76 C 184.22 98.93 185.77 98.11 187.34 97.30 C 186.96 101.51 186.09 106.75 182.01 108.97 C 178.34 109.88 174.88 107.50 171.68 106.01 C 175.95 105.25 180.38 103.75 182.67 99.76 Z" />
<path fill="#b0b6c6" opacity="1.00" d=" M 126.65 117.61 C 128.67 111.17 132.27 104.77 138.57 101.69 C 137.79 104.06 137.12 106.47 136.70 108.93 C 136.31 111.11 135.97 113.30 135.91 115.52 C 135.89 116.32 135.84 117.92 135.82 118.72 C 132.76 118.35 129.71 117.95 126.65 117.61 Z" />
<path fill="#b0b6c6" opacity="1.00" d=" M 224.98 114.07 C 231.32 118.24 240.02 116.58 245.55 111.78 C 245.84 113.61 246.12 115.44 246.43 117.27 C 240.16 121.61 231.84 121.36 225.21 117.98 C 225.13 116.68 225.05 115.37 224.98 114.07 Z" />
<path fill="#b0b6c6" opacity="1.00" d=" M 196.69 121.17 C 196.86 120.68 197.20 119.69 197.36 119.19 C 202.48 130.51 208.55 143.07 220.35 148.67 C 229.08 152.52 238.18 147.75 245.29 142.77 C 244.05 148.05 240.33 152.40 235.20 154.24 C 229.86 154.58 224.24 155.19 219.15 153.13 C 213.00 150.83 207.40 146.36 204.86 140.18 C 202.15 133.84 198.73 127.78 196.69 121.17 Z" />
<path fill="#b0b6c6" opacity="1.00" d=" M 118.24 145.28 C 123.12 141.21 128.20 137.41 133.29 133.62 C 133.23 134.40 133.12 135.97 133.06 136.76 C 132.70 139.39 132.38 142.16 130.85 144.41 C 124.18 147.65 117.55 151.45 110.00 152.05 C 103.27 152.98 96.68 150.95 90.15 149.65 C 91.70 148.55 93.16 147.33 94.62 146.12 C 97.27 146.27 99.92 146.49 102.57 146.69 C 107.72 146.65 114.12 149.69 118.24 145.28 Z" />
</g>
<g id="#a9a1a3ff">
<path fill="#a9a1a3" opacity="1.00" d=" M 70.21 102.99 C 73.25 101.23 77.75 102.55 78.79 106.07 C 80.35 110.06 76.16 114.59 72.06 113.47 C 67.22 112.59 65.87 105.45 70.21 102.99 Z" />
<path fill="#a9a1a3" opacity="1.00" d=" M 120.92 129.62 C 121.85 128.95 122.80 128.29 123.76 127.66 C 125.35 127.93 126.93 128.21 128.52 128.49 C 126.42 130.21 123.28 131.87 120.92 129.62 Z" />
<path fill="#a9a1a3" opacity="1.00" d=" M 118.48 131.03 C 120.00 131.42 121.51 131.89 123.02 132.32 C 121.43 133.28 119.83 134.21 118.23 135.15 C 118.31 133.78 118.40 132.40 118.48 131.03 Z" />
</g>
<g id="#767172ff">
<path fill="#767172" opacity="1.00" d=" M 119.47 121.37 C 120.17 120.51 122.61 120.65 122.43 122.06 C 121.72 122.96 119.28 122.79 119.47 121.37 Z" />
</g>
<g id="#938b8eff">
<path fill="#938b8e" opacity="1.00" d=" M 125.44 122.28 C 126.18 121.50 128.69 121.39 128.60 122.82 C 127.86 123.61 125.35 123.70 125.44 122.28 Z" />
</g>
<g id="#817b7dff">
<path fill="#817b7d" opacity="1.00" d=" M 131.41 123.10 C 132.45 122.30 135.20 122.22 135.52 123.71 C 134.44 124.37 131.76 124.53 131.41 123.10 Z" />
</g>
<g id="#8d8688ff">
<path fill="#8d8688" opacity="1.00" d=" M 118.98 126.05 C 121.06 123.95 123.84 123.71 126.62 124.21 C 124.64 126.45 121.78 126.75 118.98 126.05 Z" />
</g>
<g id="#696566ff">
<path fill="#696566" opacity="1.00" d=" M 118.36 127.46 C 119.13 126.04 121.69 127.21 120.54 128.66 C 119.75 130.09 117.19 128.91 118.36 127.46 Z" />
</g>
<g id="#818183ff">
<path fill="#818183" opacity="1.00" d=" M 130.85 144.41 C 132.38 142.16 132.70 139.39 133.06 136.76 C 132.96 139.06 133.00 141.36 132.99 143.67 C 131.10 148.29 132.72 153.21 132.13 157.99 C 131.33 166.11 131.33 174.29 131.90 182.43 C 131.35 181.64 130.87 180.81 130.46 179.95 C 129.37 170.33 131.35 160.46 129.58 150.94 C 129.94 150.49 130.65 149.61 131.01 149.16 L 129.21 149.86 C 129.83 148.07 130.32 146.23 130.85 144.41 Z" />
</g>
<g id="#cac1c3ff">
<path fill="#cac1c3" opacity="1.00" d=" M 115.31 142.86 C 117.85 141.97 117.01 146.40 114.92 146.08 C 113.31 145.67 114.20 143.35 115.31 142.86 Z" />
</g>
<g id="#41495bff">
<path fill="#41495b" opacity="1.00" d=" M 133.43 142.15 C 143.45 146.23 152.78 151.80 162.69 156.13 C 165.10 157.33 168.00 158.07 169.72 160.28 C 170.91 162.69 169.16 164.96 167.01 165.95 C 157.20 171.14 147.36 176.27 137.56 181.47 C 135.87 180.69 134.19 179.92 132.51 179.15 C 131.41 166.80 133.43 154.49 133.43 142.15 Z" />
</g>
<g id="#37393cff">
<path fill="#37393c" opacity="1.00" d=" M 157.77 196.37 C 172.71 197.30 188.16 196.62 202.20 190.95 C 202.35 196.82 202.40 202.70 202.17 208.57 C 195.62 209.82 188.91 212.25 184.69 217.70 C 179.81 223.25 179.90 231.06 179.94 238.02 C 180.22 246.30 180.05 255.64 186.07 262.14 C 181.33 271.48 180.24 282.59 183.40 292.59 C 184.61 296.23 187.20 299.85 191.13 300.76 C 194.63 301.65 198.15 300.48 201.47 299.45 C 201.27 294.50 201.34 289.55 201.81 284.62 C 202.75 289.73 202.54 294.96 202.37 300.12 C 202.38 302.54 200.18 304.10 198.39 305.32 C 191.60 309.19 182.46 309.37 175.93 304.85 C 175.33 303.67 175.24 302.33 175.11 301.05 C 173.12 271.57 170.85 242.12 169.02 212.63 C 172.10 213.00 175.19 213.42 178.29 213.56 C 176.14 212.33 173.74 211.63 171.27 211.50 C 166.04 211.15 160.68 210.91 155.59 212.38 C 159.47 213.06 163.41 212.64 167.32 212.56 C 167.16 224.39 166.07 236.18 165.48 247.99 C 165.20 263.02 163.28 277.98 163.31 293.02 C 163.16 296.95 163.27 301.05 161.82 304.78 C 156.17 308.40 148.82 308.68 142.55 306.59 C 139.21 305.40 135.08 303.41 135.76 299.16 C 140.26 299.62 145.85 301.13 149.34 297.29 C 153.34 292.93 152.89 286.49 152.90 281.00 C 152.96 274.31 150.36 267.66 151.99 261.00 C 154.37 249.49 154.28 237.66 154.04 225.96 C 153.74 222.51 154.04 218.31 151.19 215.79 C 146.86 212.10 141.00 211.23 135.58 210.40 C 135.37 204.04 135.42 197.69 135.49 191.33 C 142.56 194.33 150.25 195.23 157.77 196.37 Z" />
</g>
<g id="#4f5256ff">
<path fill="#4f5256" opacity="1.00" d=" M 184.69 217.70 C 188.91 212.25 195.62 209.82 202.17 208.57 C 202.09 233.92 202.14 259.28 201.81 284.62 C 201.34 289.55 201.27 294.50 201.47 299.45 C 198.15 300.48 194.63 301.65 191.13 300.76 C 187.20 299.85 184.61 296.23 183.40 292.59 C 180.24 282.59 181.33 271.48 186.07 262.14 C 180.05 255.64 180.22 246.30 179.94 238.02 C 179.90 231.06 179.81 223.25 184.69 217.70 Z" />
<path fill="#4f5256" opacity="1.00" d=" M 135.58 210.40 C 141.00 211.23 146.86 212.10 151.19 215.79 C 154.04 218.31 153.74 222.51 154.04 225.96 C 154.28 237.66 154.37 249.49 151.99 261.00 C 150.36 267.66 152.96 274.31 152.90 281.00 C 152.89 286.49 153.34 292.93 149.34 297.29 C 145.85 301.13 140.26 299.62 135.76 299.16 C 135.89 269.57 135.42 239.98 135.58 210.40 Z" />
</g>
<g id="#7e7b7aff">
<path fill="#7e7b7a" opacity="1.00" d=" M 133.20 304.28 C 134.51 303.64 135.68 303.85 136.73 304.93 C 130.12 306.94 124.63 311.21 120.35 316.56 C 121.07 309.86 127.62 306.48 133.20 304.28 Z" />
<path fill="#7e7b7a" opacity="1.00" d=" M 199.41 306.12 C 201.01 305.42 202.58 303.52 204.47 304.48 C 209.38 306.22 214.50 309.05 216.59 314.13 C 216.21 315.59 215.84 317.05 215.45 318.52 C 212.92 315.72 210.60 312.66 207.46 310.51 C 204.92 308.81 202.12 307.54 199.41 306.12 Z" />
</g>
<g id="#494543ff">
<path fill="#494543" opacity="1.00" d=" M 136.73 304.93 C 144.02 310.52 154.20 309.99 162.35 306.69 C 162.90 309.77 163.65 312.90 163.20 316.05 C 162.46 317.16 160.94 317.20 159.79 317.64 C 149.10 320.43 137.96 321.40 126.97 320.26 C 124.30 320.06 122.29 318.19 120.35 316.56 C 124.63 311.21 130.12 306.94 136.73 304.93 Z" />
<path fill="#494543" opacity="1.00" d=" M 175.15 306.90 C 182.87 309.92 192.17 310.90 199.41 306.12 C 202.12 307.54 204.92 308.81 207.46 310.51 C 210.60 312.66 212.92 315.72 215.45 318.52 C 215.84 317.05 216.21 315.59 216.59 314.13 C 216.76 313.49 217.11 312.23 217.28 311.60 C 217.87 313.83 218.94 316.50 217.34 318.56 C 215.74 320.91 212.81 321.51 210.24 322.18 L 209.76 322.04 C 204.78 320.21 199.43 321.44 194.29 320.83 C 187.60 320.10 180.99 318.74 174.48 317.05 C 174.65 313.66 174.88 310.28 175.15 306.90 Z" />
</g>
<g id="#d5d5d5ff">
<path fill="#d5d5d5" opacity="1.00" d=" M 0.00 331.98 C 87.33 332.03 174.67 331.99 262.00 331.99 L 262.00 334.01 C 174.67 333.98 87.33 334.01 0.00 334.00 L 0.00 331.98 Z" />
</g>
</svg>
